<?xml version="1.0" standalone="no"?>
<!DOCTYPE svg PUBLIC "-//W3C//DTD SVG 20010904//EN"
 "http://www.w3.org/TR/2001/REC-SVG-20010904/DTD/svg10.dtd">
<svg version="1.0" xmlns="http://www.w3.org/2000/svg"
 width="512.000000pt" height="512.000000pt" viewBox="0 0 512.000000 512.000000"
 preserveAspectRatio="xMidYMid meet">
<metadata>
Created by potrace 1.11, written by Peter Selinger 2001-2013
</metadata>
<g transform="translate(0.000000,512.000000) scale(0.100000,-0.100000)"
fill="#000000" stroke="none">
<path d="M2513 5110 c-12 -5 -101 -115 -198 -244 -142 -188 -177 -241 -177
-268 -1 -18 11 -80 26 -137 29 -111 56 -241 50 -241 -2 0 -42 31 -88 69 -193
158 -303 212 -362 181 -21 -12 -130 -165 -232 -327 -64 -100 -52 -134 74 -219
245 -162 433 -443 494 -736 27 -130 31 -175 31 -318 0 -389 -114 -631 -336
-715 -70 -27 -218 -28 -316 -4 -188 48 -353 179 -472 377 -96 159 -174 399
-214 657 -24 156 -23 534 2 607 2 7 6 27 9 43 8 49 33 136 60 203 69 175 177
314 337 438 67 51 69 54 76 96 10 65 -38 118 -108 118 -52 0 -236 -139 -401
-303 -130 -129 -160 -164 -295 -342 -22 -29 -116 -179 -151 -241 -165 -296
-275 -644 -310 -984 -14 -138 -6 -535 13 -615 2 -11 6 -36 9 -55 32 -248 163
-618 305 -860 67 -115 211 -325 241 -350 3 -3 16 -18 28 -34 80 -104 286 -297
435 -406 293 -216 643 -373 992 -444 206 -42 294 -51 530 -51 223 0 302 8 517
50 372 74 741 246 1057 493 394 307 681 716 850 1207 31 91 85 303 96 375 24
159 29 242 30 425 0 193 -3 251 -16 330 -4 28 -10 66 -13 85 -2 19 -9 58 -15
85 -6 28 -13 61 -15 75 -33 168 -137 446 -237 635 -51 97 -175 289 -236 365
-24 30 -57 71 -74 91 -99 124 -337 339 -481 437 -72 49 -140 40 -173 -23 -32
-58 -16 -96 68 -162 182 -144 289 -295 358 -505 31 -96 34 -107 54 -238 20
-124 13 -422 -14 -580 -61 -370 -170 -618 -351 -800 -114 -115 -228 -180 -355
-205 -59 -12 -201 -14 -245 -4 -247 56 -383 319 -382 743 0 348 113 645 334
882 62 65 177 158 235 188 43 22 67 60 66 105 -1 29 -25 72 -123 219 -163 244
-168 246 -355 124 -38 -26 -75 -51 -81 -57 -6 -5 -26 -21 -45 -35 -18 -14 -50
-40 -71 -59 -21 -18 -39 -29 -39 -25 -4 30 16 126 55 267 13 49 22 100 20 115
-7 39 -349 490 -380 502 -31 12 -61 12 -91 0z"/>
</g>
</svg>
