<?xml version="1.0" standalone="no"?>
<!DOCTYPE svg PUBLIC "-//W3C//DTD SVG 20010904//EN"
 "http://www.w3.org/TR/2001/REC-SVG-20010904/DTD/svg10.dtd">
<svg version="1.0" xmlns="http://www.w3.org/2000/svg"
 width="256.000000pt" height="256.000000pt" viewBox="0 0 256.000000 256.000000"
 preserveAspectRatio="xMidYMid meet">
<metadata>
Created by potrace 1.11, written by Peter Selinger 2001-2013
</metadata>
<g transform="translate(0.000000,256.000000) scale(0.100000,-0.100000)"
fill="#000000" stroke="none">
<path d="M1185 2543 c-134 -29 -202 -56 -281 -114 -161 -118 -250 -287 -261
-496 l-6 -103 631 0 631 0 -4 101 c-2 56 -12 127 -21 158 -63 221 -258 402
-479 446 -39 8 -184 13 -210 8z m152 -144 c60 -22 112 -100 113 -165 1 -132
-150 -220 -266 -155 -62 35 -89 82 -89 157 0 54 4 67 31 101 53 66 136 91 211
62z m360 -336 c26 -32 24 -87 -5 -115 -10 -11 -37 -22 -59 -25 -35 -5 -42 -2
-66 27 -29 34 -34 65 -16 104 24 51 107 56 146 9z"/>
<path d="M294 1721 c-43 -20 -74 -56 -91 -106 -6 -19 -10 -238 -11 -581 l0
-551 -37 -94 c-20 -52 -42 -107 -50 -124 -7 -16 -29 -73 -50 -125 -20 -52 -38
-97 -40 -100 -2 -3 157 -5 353 -5 306 1 357 3 354 16 -5 20 -150 391 -162 411
-6 11 -10 256 -10 648 l0 630 -107 0 c-84 0 -117 -5 -149 -19z"/>
<path d="M641 1111 l1 -629 91 -89 92 -89 447 1 448 0 88 88 89 88 0 630 0
629 -628 0 -628 0 0 -629z m952 429 c51 -40 39 -128 -20 -151 -16 -6 -141 -9
-319 -7 -281 3 -294 4 -314 24 -11 11 -23 37 -27 57 -5 31 -1 40 25 67 l30 30
300 0 c285 0 301 -1 325 -20z m-66 -340 c73 0 117 -60 92 -123 -22 -52 -38
-55 -357 -54 -269 0 -295 1 -316 18 -30 24 -40 62 -26 103 11 36 38 54 85 58
24 2 243 2 522 -2z"/>
<path d="M1989 1708 c0 -18 0 -301 0 -628 l-1 -595 -89 -222 c-49 -123 -89
-224 -89 -226 0 -1 160 -2 355 -2 195 0 355 3 355 7 0 5 -39 104 -86 221 l-86
212 -2 565 c-2 609 -1 598 -56 648 -45 42 -83 52 -195 52 l-105 0 -1 -32z"/>
</g>
</svg>
